<svg width="275" height="200" viewBox="0 0 275 200" fill="none" xmlns="http://www.w3.org/2000/svg">
<circle cx="100" cy="100" r="100" fill="#FFC700"/>
<ellipse cx="45.1099" cy="38.6397" rx="5" ry="10" transform="rotate(57 45.1099 38.6397)" fill="#333333"/>
<ellipse cx="154.119" cy="40.5961" rx="5" ry="10" transform="rotate(-57.4381 154.119 40.5961)" fill="#333333"/>
<ellipse cx="99.75" cy="153" rx="43.75" ry="35" fill="#333333"/>
<path fill-rule="evenodd" clip-rule="evenodd" d="M228 0C218.448 0 208.093 0.842979 198.723 1.90489C190.647 2.82015 184.317 9.21664 183.435 17.2784C182.417 26.5881 181.572 36.9315 181.572 46.4286C181.572 54.0909 182.122 62.309 182.868 70.0821L178.082 92.0986C177.821 93.2978 178.194 94.5479 179.071 95.4071C179.948 96.2671 181.204 96.6157 182.399 96.3314L202.974 91.4329C211.16 92.2586 219.869 92.8571 228 92.8571C237.549 92.8571 247.909 92.0314 257.286 90.9793C265.367 90.0721 271.698 83.6736 272.576 75.61C273.59 66.288 274.429 55.9263 274.429 46.4286C274.429 36.933 273.59 26.5907 272.576 17.2802C271.698 9.21686 265.367 2.8201 257.291 1.90519C247.916 0.843129 237.553 0 228 0ZM206.125 37.5C206.125 35.0344 208.124 33.0357 210.589 33.0357H245.411C247.876 33.0357 249.875 35.0344 249.875 37.5C249.875 39.9656 247.876 41.9643 245.411 41.9643H210.589C208.124 41.9643 206.125 39.9656 206.125 37.5ZM210.589 54.4643C208.124 54.4643 206.125 56.463 206.125 58.9286C206.125 61.3941 208.124 63.3929 210.589 63.3929H236.929C239.394 63.3929 241.393 61.3941 241.393 58.9286C241.393 56.463 239.394 54.4643 236.929 54.4643H210.589Z" fill="white"/>
</svg>
